D:\school\WTK\thesis\model\3dpredictsim\Results\Batchsim_tmt_linear_v2\Pog_s1_tmt_aCst_d05_k800_ig24_act_GRF.mot
nRows=20
nColumns=19

name D:\school\WTK\thesis\model\3dpredictsim\Results\Batchsim_tmt_linear_v2\Pog_s1_tmt_aCst_d05_k800_ig24_act_GRF.mot
datacolumns 19
datarows 20
range 0.0000000000 0.2467016973
endheader
time 	ground_force_vx	ground_force_vy	ground_force_vz	ground_force_px	ground_force_py	ground_force_pz	1_ground_force_vx	1_ground_force_vy	1_ground_force_vz	1_ground_force_px	1_ground_force_py	1_ground_force_pz	ground_torque_x	ground_torque_y	ground_torque_z	1_ground_torque_x	1_ground_torque_y	1_ground_torque_z
        0.0000000000	      -29.8650305595	       23.4664845981	        2.8411495283	        0.2292987260	        0.0000000000	        0.0533676733	       86.3904519991	      351.0044013723	        4.3349289496	       -0.3754646068	        0.0000000000	       -0.0433349367	        0.0000000000	        0.0000000000	        0.0000000000	        0.0000000000	        0.0000000000	        0.0000000000	
        0.0129842999	     -120.1986811177	      116.1397009114	       12.4709879171	        0.2373974474	        0.0000000000	        0.0525749049	       32.8939799760	      225.0030687415	       -8.9232522688	       -0.3343544550	        0.0000000000	       -0.0390711946	        0.0000000000	        0.0000000000	        0.0000000000	        0.0000000000	        0.0000000000	        0.0000000000	
        0.0259685997	      -85.1761634358	      353.5658595304	        0.1556290737	        0.2429891164	        0.0000000000	        0.0518882390	       22.9187768443	      191.8271566917	       -9.9453151060	       -0.3307178123	        0.0000000000	       -0.0380865226	        0.0000000000	        0.0000000000	        0.0000000000	        0.0000000000	        0.0000000000	        0.0000000000	
        0.0389528996	     -102.7509934803	      599.7553128195	      -10.2294494310	        0.2459454405	        0.0000000000	        0.0519543113	       22.6041490571	      151.6904640927	      -10.1708916007	       -0.3301125958	        0.0000000000	       -0.0382033241	        0.0000000000	        0.0000000000	        0.0000000000	        0.0000000000	        0.0000000000	        0.0000000000	
        0.0519371994	     -164.2519705775	      833.4443540425	      -19.1818941534	        0.2556087542	        0.0000000000	        0.0539441642	       15.1759291476	       99.6980128283	      -12.4484031902	       -0.3296766347	        0.0000000000	       -0.0386675818	        0.0000000000	        0.0000000000	        0.0000000000	        0.0000000000	        0.0000000000	        0.0000000000	
        0.0649214993	     -205.9902852157	      970.0181468560	      -23.3580178299	        0.2657257316	        0.0000000000	        0.0561393871	        0.9182947256	       39.5749373252	       -8.2275575720	       -0.3300460997	        0.0000000000	       -0.0390322051	        0.0000000000	        0.0000000000	        0.0000000000	        0.0000000000	        0.0000000000	        0.0000000000	
        0.0779057991	     -199.0951242328	      955.6479585788	      -22.6745456362	        0.2725443024	        0.0000000000	        0.0574642471	        0.5225616439	       -0.5087928686	       -0.0004322077	        0.0000000000	        0.0000000000	        0.0000000000	        0.0000000000	        0.0000000000	        0.0000000000	        0.0000000000	        0.0000000000	        0.0000000000	
        0.0908900990	     -169.5693960044	      868.3324608105	      -20.3627981607	        0.2776340073	        0.0000000000	        0.0583351979	        0.4305023998	       -0.3269716304	       -0.0335878091	        0.0000000000	        0.0000000000	        0.0000000000	        0.0000000000	        0.0000000000	        0.0000000000	        0.0000000000	        0.0000000000	        0.0000000000	
        0.1038743989	     -147.3791396195	      787.1667852324	      -17.1833966952	        0.2818371720	        0.0000000000	        0.0589376917	       -4.7205782685	        3.0764567728	        0.4012563261	        0.0000000000	        0.0000000000	        0.0000000000	        0.0000000000	        0.0000000000	        0.0000000000	        0.0000000000	        0.0000000000	        0.0000000000	
        0.1168586987	     -128.5655447458	      740.8482704294	      -15.1508463135	        0.2859378962	        0.0000000000	        0.0593103965	       -3.3399813207	        1.9388625818	        0.2786761620	        0.0000000000	        0.0000000000	        0.0000000000	        0.0000000000	        0.0000000000	        0.0000000000	        0.0000000000	        0.0000000000	        0.0000000000	
        0.1298429986	     -115.5277872986	      718.1001814238	      -14.9220649443	        0.2912188111	        0.0000000000	        0.0595843835	       -2.5936004559	        1.3850411584	        0.1978380808	        0.0000000000	        0.0000000000	        0.0000000000	        0.0000000000	        0.0000000000	        0.0000000000	        0.0000000000	        0.0000000000	        0.0000000000	
        0.1428272984	     -106.3038366192	      702.0767193242	      -14.8635095956	        0.2973357404	        0.0000000000	        0.0594176204	       -1.9454538515	        0.9778853420	        0.1319302553	        0.0000000000	        0.0000000000	        0.0000000000	        0.0000000000	        0.0000000000	        0.0000000000	        0.0000000000	        0.0000000000	        0.0000000000	
        0.1558115983	      -96.3515892207	      680.1542111810	      -14.6239600195	        0.3029403819	        0.0000000000	        0.0591719014	       -1.3995526702	        0.6750731229	        0.0759143919	        0.0000000000	        0.0000000000	        0.0000000000	        0.0000000000	        0.0000000000	        0.0000000000	        0.0000000000	        0.0000000000	        0.0000000000	
        0.1687958981	      -87.3060097127	      657.1152770679	      -14.6646816897	        0.3080831751	        0.0000000000	        0.0588814709	       -1.0734897032	        0.5005579062	        0.0461482880	        0.0000000000	        0.0000000000	        0.0000000000	        0.0000000000	        0.0000000000	        0.0000000000	        0.0000000000	        0.0000000000	        0.0000000000	
        0.1817801980	      -79.0765802470	      636.7508516101	      -15.0699369218	        0.3128691534	        0.0000000000	        0.0585382278	       -0.9095664820	        0.4121829793	        0.0299615185	        0.0000000000	        0.0000000000	        0.0000000000	        0.0000000000	        0.0000000000	        0.0000000000	        0.0000000000	        0.0000000000	        0.0000000000	
        0.1947644978	      -71.2902168842	      619.4156641756	      -15.8360847603	        0.3172698467	        0.0000000000	        0.0582164312	       -0.8484538303	        0.3753862962	        0.0207019543	        0.0000000000	        0.0000000000	        0.0000000000	        0.0000000000	        0.0000000000	        0.0000000000	        0.0000000000	        0.0000000000	        0.0000000000	
        0.2077487977	      -63.7288491270	      604.8561639767	      -16.7498313348	        0.3213537541	        0.0000000000	        0.0579137613	       -0.8601445519	        0.3723430011	        0.0151672257	        0.0000000000	        0.0000000000	        0.0000000000	        0.0000000000	        0.0000000000	        0.0000000000	        0.0000000000	        0.0000000000	        0.0000000000	
        0.2207330976	      -56.6924062573	      592.1785967318	      -17.6630042921	        0.3251322001	        0.0000000000	        0.0576206186	       -0.9436593262	        0.4002044516	        0.0119095371	        0.0000000000	        0.0000000000	        0.0000000000	        0.0000000000	        0.0000000000	        0.0000000000	        0.0000000000	        0.0000000000	        0.0000000000	
        0.2337173974	      -50.4590299128	      581.3809367095	      -18.4321833386	        0.3285876637	        0.0000000000	        0.0573330210	       -1.0894362483	        0.4533520472	        0.0096255595	        0.0000000000	        0.0000000000	        0.0000000000	        0.0000000000	        0.0000000000	        0.0000000000	        0.0000000000	        0.0000000000	        0.0000000000	
        0.2467016973	      -44.7784013870	      571.6708269276	      -18.8317011005	        0.3316943298	        0.0000000000	        0.0570611643	       -1.2796492701	        0.5236318290	        0.0072974080	        0.0000000000	        0.0000000000	        0.0000000000	        0.0000000000	        0.0000000000	        0.0000000000	        0.0000000000	        0.0000000000	        0.0000000000	
